<?xml version="1.0" encoding="UTF-8"?>
<svg id="Layer_1" data-name="Layer 1" xmlns="http://www.w3.org/2000/svg" viewBox="0 0 300 400">
  <defs>
    <style>
      .cls-1 {
        fill: #a7a9ac;
        fill-rule: evenodd;
      }

      .cls-2 {
        fill: #e6e7e8;
      }
    </style>
  </defs>
  <rect class="cls-2" width="300" height="400"/>
  <path class="cls-1" d="M151.49,226.64c42.85-19.22,64.28-28.84,64.28-28.84,2.57-1.12,4.22-3.66,4.22-6.47v-5.43c.04-2.77-1.6-5.6-4.17-6.73-42.82-19.21-64.23-28.81-64.23-28.81-1-.48-2.16-.48-3.15,0-44.43,19.93-67.46,30.27-67.46,30.27-.58,.27-.95,.86-.94,1.5v1.11c0,.7,.07,1.33,.85,1.67,45.3,20.32,67.89,30.46,67.89,30.46,.77,.33,1.26,1.09,1.24,1.93v5.14c.02,.31-.13,.61-.38,.78-.26,.17-.59,.2-.87,.07l-53.37-23.94v-4.2l-8.67-3.89v4.2l-5.57-2.5c-.22-.15-.51-.16-.75-.03-.24,.13-.38,.38-.38,.64v1.48c-.03,.51,.26,.99,.73,1.2l5.97,2.68v49.65l4.34-3.36,4.34,4.8v-47.2l53.09,23.82c.95,.46,2.05,.46,3.01,.02h0Zm45.04-15.41v15.35c0,9.04-20.83,16.36-46.52,16.36s-46.52-7.32-46.52-16.36v-15.35l44.73,20.13c1.8,.81,1.81,.8,3.6,0l44.71-20.13Z"/>
</svg>