<?xml version="1.0" encoding="UTF-8"?>
<svg id="Layer_1" data-name="Layer 1" xmlns="http://www.w3.org/2000/svg" viewBox="0 0 150 200">
  <defs>
    <style>
      .cls-1 {
        fill: #a7a9ac;
        fill-rule: evenodd;
      }

      .cls-2 {
        fill: #e6e7e8;
      }
    </style>
  </defs>
  <rect class="cls-2" width="150" height="200"/>
  <path class="cls-1" d="M75.74,113.32c21.43-9.61,32.14-14.42,32.14-14.42,1.28-.56,2.11-1.83,2.11-3.23v-2.72c.02-1.39-.8-2.8-2.09-3.37-21.41-9.6-32.11-14.41-32.11-14.41-.5-.24-1.08-.24-1.58,0-22.21,9.97-33.73,15.13-33.73,15.13-.29,.14-.48,.43-.47,.75v.55c0,.35,.03,.66,.42,.83,22.65,10.16,33.95,15.23,33.95,15.23,.38,.17,.63,.55,.62,.96v2.57c.01,.15-.06,.3-.19,.39-.13,.09-.29,.1-.43,.03l-26.68-11.97v-2.1l-4.34-1.94v2.1l-2.78-1.25c-.11-.07-.26-.08-.37-.01-.12,.06-.19,.19-.19,.32v.74c-.02,.26,.13,.5,.36,.6l2.98,1.34v24.82l2.17-1.68,2.17,2.4v-23.6l26.55,11.91c.47,.23,1.03,.23,1.5,0h0Zm22.52-7.7v7.68c0,4.52-10.41,8.18-23.26,8.18s-23.26-3.66-23.26-8.18v-7.68l22.36,10.07c.9,.4,.9,.4,1.8,0l22.36-10.07Z"/>
</svg>