<?xml version="1.0" encoding="UTF-8"?>
<svg id="Layer_1" data-name="Layer 1" xmlns="http://www.w3.org/2000/svg" viewBox="0 0 75 100">
  <defs>
    <style>
      .cls-1 {
        fill: #a7a9ac;
        fill-rule: evenodd;
      }

      .cls-2 {
        fill: #e6e7e8;
      }
    </style>
  </defs>
  <rect class="cls-2" width="75" height="100"/>
  <path class="cls-1" d="M37.87,56.66c10.71-4.81,16.07-7.21,16.07-7.21,.64-.28,1.06-.92,1.05-1.62v-1.36c0-.69-.4-1.4-1.04-1.68-10.7-4.8-16.06-7.2-16.06-7.2-.25-.12-.54-.12-.79,0-11.11,4.98-16.87,7.57-16.87,7.57-.15,.07-.24,.21-.24,.38v.28c0,.18,.02,.33,.21,.42,11.33,5.08,16.97,7.61,16.97,7.61,.19,.08,.31,.27,.31,.48v1.28c0,.08-.03,.15-.1,.2-.06,.04-.15,.05-.22,.02l-13.34-5.99v-1.05l-2.17-.97v1.05l-1.39-.62c-.06-.04-.13-.04-.19,0-.06,.03-.1,.09-.09,.16v.37c0,.13,.06,.25,.18,.3l1.49,.67v12.41l1.08-.84,1.08,1.2v-11.8l13.27,5.95c.24,.11,.51,.12,.75,0h0Zm11.26-3.85v3.84c0,2.26-5.21,4.09-11.63,4.09s-11.63-1.83-11.63-4.09v-3.84l11.18,5.03c.45,.2,.45,.2,.9,0l11.18-5.03Z"/>
</svg>