<?xml version="1.0" encoding="UTF-8"?>
<svg id="Layer_1" data-name="Layer 1" xmlns="http://www.w3.org/2000/svg">
  <symbol id="logo" viewBox="0 0 84 60">
    <path d="M42.89,45.98c25.72-11.53,38.58-17.3,38.58-17.3,1.54-.67,2.53-2.2,2.53-3.88v-3.26c.02-1.66-.96-3.36-2.5-4.04C55.8,5.98,42.95,.21,42.95,.21c-.6-.29-1.29-.29-1.89,0C14.39,12.17,.57,18.37,.57,18.37,.22,18.54,0,18.89,0,19.27v.66c0,.42,.04,.8,.51,1,27.19,12.19,40.75,18.27,40.75,18.27,.46,.2,.75,.65,.74,1.16v3.08c.01,.19-.08,.37-.23,.47-.15,.1-.35,.12-.52,.04L9.22,29.6v-2.52l-5.2-2.33v2.52l-3.34-1.5c-.13-.09-.31-.09-.45-.02-.14,.08-.23,.23-.23,.39v.89c-.02,.31,.15,.59,.44,.72l3.58,1.61v29.79l2.6-2.01,2.6,2.88V31.68l31.87,14.29c.57,.27,1.23,.28,1.8,0h0Zm27.03-9.25v9.21c0,5.42-12.5,9.82-27.92,9.82s-27.92-4.39-27.92-9.82v-9.21l26.84,12.08c1.08,.49,1.09,.48,2.16,0l26.83-12.08Z"/>
  </symbol>
</svg>